HIERARCHY
ROOT Hips
{
  OFFSET -204.647 102.961 206.516
  CHANNELS 6 Xposition Yposition Zposition Zrotation Xrotation Yrotation
  JOINT ToSpine
  {
    OFFSET -2.69724 7.43032 -0.144315
    CHANNELS 3 Zrotation Xrotation Yrotation
    JOINT Spine
    {
      OFFSET -0.0310711 10.7595 1.96963
      CHANNELS 3 Zrotation Xrotation Yrotation
      JOINT Spine1
      {
        OFFSET 19.9056 3.91189 0.764692
        CHANNELS 3 Zrotation Xrotation Yrotation
        JOINT Neck
        {
          OFFSET 25.9749 7.03908 -0.130764
          CHANNELS 3 Zrotation Xrotation Yrotation
          JOINT Head
          {
            OFFSET 9.52751 0.295786 -0.907742
            CHANNELS 3 Zrotation Xrotation Yrotation
            End Site
            {
              OFFSET 16.4037 0.713936 2.7358
            }
          }
        }
        JOINT LeftShoulder
        {
          OFFSET 17.7449 4.33886 11.7777
          CHANNELS 3 Zrotation Xrotation Yrotation
          JOINT LeftArm
          {
            OFFSET 0.911315 1.27913 9.80584
            CHANNELS 3 Zrotation Xrotation Yrotation
            JOINT LeftForeArm
            {
              OFFSET 28.6126 1.18197 -3.53199
              CHANNELS 3 Zrotation Xrotation Yrotation
              JOINT LeftHand
              {
                OFFSET 27.5088 0.0218783 0.327423
                CHANNELS 3 Zrotation Xrotation Yrotation
                End Site
                {
                  OFFSET 18.6038 -0.000155887 0.382096
                }
              }
            }
          }
        }
        JOINT RightShoulder
        {
          OFFSET 17.1009 2.89543 -12.2328
          CHANNELS 3 Zrotation Xrotation Yrotation
          JOINT RightArm
          {
            OFFSET 1.4228 0.178766 -10.211
            CHANNELS 3 Zrotation Xrotation Yrotation
            JOINT RightForeArm
            {
              OFFSET 28.733 1.87905 2.64907
              CHANNELS 3 Zrotation Xrotation Yrotation
              JOINT RightHand
              {
                OFFSET 27.4588 0.290562 -0.101845
                CHANNELS 3 Zrotation Xrotation Yrotation
                End Site
                {
                  OFFSET 17.8396 -0.255518 -0.000602873
                }
              }
            }
          }
        }
      }
    }
  }
  JOINT LeftUpLeg
  {
    OFFSET -5.61296 -2.22332 -10.2353
    CHANNELS 3 Zrotation Xrotation Yrotation
    JOINT LeftLeg
    {
      OFFSET 2.56703 -44.7417 -7.93097
      CHANNELS 3 Zrotation Xrotation Yrotation
      JOINT LeftFoot
      {
        OFFSET 3.16933 -46.5642 -3.96578
        CHANNELS 3 Zrotation Xrotation Yrotation
        JOINT LeftToeBase
        {
          OFFSET 0.346054 -6.02161 12.8035
          CHANNELS 3 Zrotation Xrotation Yrotation
          End Site
          {
            OFFSET 0.134235 -1.35082 5.13018
          }
        }
      }
    }
  }
  JOINT RightUpLeg
  {
    OFFSET -5.7928 -1.72406 10.6446
    CHANNELS 3 Zrotation Xrotation Yrotation
    JOINT RightLeg
    {
      OFFSET -2.57161 -44.7178 -7.85259
      CHANNELS 3 Zrotation Xrotation Yrotation
      JOINT RightFoot
      {
        OFFSET -3.10148 -46.5936 -4.03391
        CHANNELS 3 Zrotation Xrotation Yrotation
        JOINT RightToeBase
        {
          OFFSET -0.0828122 -6.13587 12.8035
          CHANNELS 3 Zrotation Xrotation Yrotation
          End Site
          {
            OFFSET -0.131328 -1.35082 5.13018
          }
        }
      }
    }
  }
}
MOTION
Frames:	8
Frame Time:	0.0333333
-162.118 98.4221 155.433 70.977 44.5146 9.6043 -70.1915 0 88.8779 102.365 75.4994 -21.3874 7.72051 23.7683 -0.0328446 -145.275 21.3681 173.317 -146.835 57.8518 164.622 2.3002 -3.01706 -29.3489 -102.26 53.142 -100.104 -10.6304 45.5545 10.8797 8.02248 -0.198996 -1.15273 0.129287 0.0585747 33.2273 -91.7693 -50.2971 83.5847 -1.01141 -20.079 9.82225 6.02662 -0.0150556 -0.643944 -43.6559 -11.2954 82.7364 -1.81523 41.3235 -1.29989 6.28562 4.68959 -0.788157 -5.7877 -20.4244 11.7709 -52.7558 -7.32704 86.254 157.033 78.9391 -151.306 -5.98778 -1.10586 0.917883 1.95144 2.40467 -6.78489 
-159.659 98.869 152.957 72.0552 44.9889 9.66875 -70.1915 0 88.8779 99.7065 75.4974 -18.8202 8.00945 23.1256 0.86372 -143.532 20.9541 172.805 -147.004 57.4974 164.611 2.26252 -3.08368 -28.9415 -98.0146 53.4841 -104.517 -10.8091 42.1932 9.71543 10.3867 -0.229041 -0.796926 0.0990213 0.218996 33.1039 -92.5123 -50.6369 81.8818 -1.1313 -17.7272 10.1861 6.94767 -0.0862836 -1.94967 -46.9085 -10.5288 83.5359 -0.920131 41.1048 -3.1468 6.41289 3.38218 -0.829529 -5.9358 -21.4461 11.5036 -47.7658 -5.37545 86.0448 164.929 71.3051 -159.169 -6.23923 -1.63164 0.954419 5.23665 -5.37501 -10.2408 
-157.174 99.1528 150.554 73.4789 45.2506 9.30071 -70.1915 0 88.8779 99.0021 75.2304 -18.6868 7.54295 22.339 2.10521 -142.027 20.3811 172.415 -147.123 56.9352 164.444 2.2813 -2.94503 -28.8643 -94.3986 53.0169 -107.884 -8.9636 40.2456 5.55589 11.9264 -0.307509 -1.23024 0.0201966 0.610553 33.3352 -93.8768 -50.5467 79.53 -0.898338 -17.0133 10.4517 7.14195 -0.0541246 -1.31758 -50.0869 -8.94571 87.0807 0.821031 40.9731 -7.48929 7.26625 2.11468 -0.967858 -6.07058 -22.3376 11.2348 -42.8061 -3.67157 85.6638 167.191 66.5183 -161.47 -6.76017 -2.80074 1.02587 7.66122 -11.5675 -13.2962 
-154.701 99.1043 148.098 74.3671 45.0436 9.06988 -70.1915 0 88.8779 97.7802 74.9727 -17.8205 6.95365 21.7681 2.67127 -141.669 19.6171 172.024 -148.157 56.3411 164.609 2.27909 -2.69105 -28.1982 -91.7362 52.9695 -110.51 -5.61185 38.802 -0.50965 10.2886 -0.310778 -1.77907 0.072101 0.343304 33.4252 -95.6672 -50.5199 77.735 -0.735999 -17.3401 10.1539 7.85782 -0.0450625 -1.08756 -52.5958 -7.09089 91.491 2.59845 41.2287 -12.6951 8.6949 0.869745 -1.16242 -6.31197 -23.784 11.5315 -37.2686 -2.22521 85.49 167.725 64.8884 -161.788 -7.02073 -4.19783 1.06571 8.36853 -14.5823 -13.0851 
-152.166 99.0405 145.411 75.5272 44.9759 8.18741 -70.1915 0 88.8779 96.7315 74.6371 -17.4208 6.25863 21.3461 3.18779 -141.437 18.9491 171.706 -148.045 55.5948 164.245 2.26368 -2.60391 -27.7643 -87.9092 52.1289 -113.869 -2.81849 37.6757 -6.13492 9.49192 -0.455457 -3.56407 0.050048 0.4649 33.2114 -97.1753 -50.6785 75.673 -0.495739 -17.3784 10.1838 8.29394 -0.0375694 -0.938887 -55.9052 -5.36693 96.1601 3.94741 40.721 -17.6397 10.0126 -0.0759669 -1.31761 -6.50846 -24.9944 11.4531 -32.7446 -1.60397 85.5918 166.849 66.8459 -159.724 -7.17225 -6.07025 1.09539 8.26422 -14.7868 -12.4258 
-149.581 98.899 142.824 76.1581 45.5242 8.269 -70.1915 0 88.8779 95.262 74.0444 -16.1942 5.69473 20.6915 3.92152 -141.322 18.6589 171.788 -147.689 55.2138 164.297 2.29784 -2.5399 -28.1122 -82.5256 50.2898 -118.964 -0.169191 35.6135 -10.5081 11.9525 -0.733434 -5.22845 0.0324504 0.56193 33.0837 -98.9289 -50.2973 73.8153 -0.605579 -16.7741 9.62339 7.94306 -0.0866551 -1.72962 -58.8828 -3.60601 99.211 4.52523 40.4365 -21.9246 10.9515 -0.78898 -1.41306 -6.73557 -26.3671 11.5262 -29.2984 -1.3482 84.8112 163.723 72.3027 -155.289 -7.4472 -7.35778 1.12321 8.41425 -15.3506 -12.432 
-146.977 98.8577 140.318 76.2887 46.2951 9.22351 -70.1915 0 88.8779 93.8542 73.3347 -14.3689 5.24388 20.0942 4.43692 -141.623 18.6027 171.772 -147.583 55.1268 164.273 2.34101 -2.36084 -28.3113 -74.3147 47.2916 -126.406 2.89518 32.1117 -14.1655 10.2505 -0.610076 -4.93457 0.0495309 0.453896 33.5028 -100.562 -49.4627 72.3704 -0.602624 -16.6421 8.99052 8.34284 -0.0406062 -0.967524 -61.645 -1.60897 101.312 4.83746 39.9684 -26.0493 11.6687 -1.56223 -1.47265 -6.83072 -26.9992 12.2897 -27.2228 -1.12619 83.4902 150.739 80.9707 -141.076 -7.57002 -7.97432 1.13452 9.15333 -17.637 -13.1204 
-144.555 99.0239 137.886 76.3952 46.9942 10.0187 -70.1915 0 88.8779 93.3538 72.7632 -13.3289 4.78786 19.8021 4.82071 -141.829 18.6269 171.755 -147.161 55.087 164.31 2.36503 -2.35847 -28.6469 -62.9148 41.2044 -134.915 5.82449 24.2113 -18.1767 9.82259 -0.379872 -2.67171 0.0667677 0.348173 33.9624 -101.064 -48.6035 71.4796 -0.687538 -15.547 8.90965 8.17566 -0.0800751 -1.58032 -64.5927 0.36019 103.213 4.59795 38.8729 -29.3415 12.0702 -1.64495 -1.51305 -6.87663 -27.3314 12.7289 -26.8841 -1.14754 82.1701 40.4843 84.1801 -29.7542 -7.17073 -8.86164 1.12087 9.01965 -15.6739 -14.6613 
